<svg id="Layer_1" data-name="Layer 1" xmlns="http://www.w3.org/2000/svg" viewBox="0 0 256 175"><defs><style>.cls-1{fill:#19303d;}.cls-2{fill:#fff;}.cls-3{fill:#87d83e;}.cls-4{fill:#142024;}.cls-5{fill:#fffbe9;}.cls-6{fill:#44657a;}.cls-7{fill:#bdd3e0;}</style></defs><title>Alien</title><path class="cls-1" d="M194,74.7H63.3a65.4,65.4,0,0,1,130.7,0Z"/><path class="cls-2" d="M100,26.3a1.1,1.1,0,0,1-.9-.4,1.1,1.1,0,0,1,.3-1.5,43.5,43.5,0,0,1,11.4-5.7,1.1,1.1,0,0,1,1.4.7,1.1,1.1,0,0,1-.7,1.3,44.7,44.7,0,0,0-10.9,5.5Z"/><path class="cls-2" d="M76.3,65.1h-.1a1,1,0,0,1-1-1.1A47.1,47.1,0,0,1,90.6,31.2a1.1,1.1,0,0,1,1.6,0,1.2,1.2,0,0,1-.1,1.6A45,45,0,0,0,77.4,64.1,1.1,1.1,0,0,1,76.3,65.1Z"/><path class="cls-3" d="M154.1,43.6V74.7H101.8V43.6a26.4,26.4,0,0,1,7.7-18.5,26.2,26.2,0,0,1,44.6,18.5Z"/><ellipse class="cls-2" cx="127.9" cy="42.9" rx="11.4" ry="7.1"/><path class="cls-4" d="M127.9,35.8c6.4,0,11.5,3.1,11.5,7.1s-5.1,7-11.5,7-11.4-3.1-11.4-7,5.1-7.1,11.4-7.1m0-2.2c-7.6,0-13.6,4.1-13.6,9.3s6,9.2,13.6,9.2,13.7-4.1,13.7-9.2-6-9.3-13.7-9.3Z"/><ellipse class="cls-4" cx="127.9" cy="42.9" rx="9.3" ry="5.4"/><path class="cls-5" d="M129.9,60.9a2.8,2.8,0,0,1,.1.9c0,2.9-.9,5.4-2.1,5.4s-2-2.5-2-5.4v-.9"/><path class="cls-4" d="M127.9,67.7c-1.6,0-2.5-3-2.5-5.9v-1a.6.6,0,1,1,1.1.1v.9c0,3.1.9,4.8,1.4,4.8s1.5-1.7,1.5-4.8v-.9a.6.6,0,1,1,1.1-.1v1C130.5,64.7,129.6,67.7,127.9,67.7Z"/><path class="cls-5" d="M123.9,60.6v.5c0,3-.9,5.4-2,5.4s-2.1-2.4-2.1-5.4a11,11,0,0,1,.2-1.8"/><path class="cls-4" d="M121.9,67c-1.7,0-2.6-3-2.6-5.9a11.5,11.5,0,0,1,.1-1.9c.1-.3.3-.5.6-.4a.6.6,0,0,1,.5.6,9.1,9.1,0,0,0-.1,1.7c0,3.1,1,4.8,1.5,4.8s1.4-1.7,1.4-4.8v-.5a.6.6,0,0,1,.5-.6.6.6,0,0,1,.6.5v.6C124.4,64,123.5,67,121.9,67Z"/><path class="cls-5" d="M135.9,59.3a10.9,10.9,0,0,1,.1,1.8c0,3-.9,5.4-2,5.4s-2-2.4-2-5.4v-.5"/><path class="cls-4" d="M134,67c-1.7,0-2.6-3-2.6-5.9a1.3,1.3,0,0,1,.1-.6.5.5,0,0,1,.5-.5c.3.1.6.3.5.6v.5c0,3.1,1,4.8,1.5,4.8s1.5-1.7,1.5-4.8a9.1,9.1,0,0,0-.1-1.7.5.5,0,0,1,.5-.6c.2-.1.5.1.6.4s.1,1.2.1,1.9C136.6,64,135.7,67,134,67Z"/><path class="cls-4" d="M127.9,62.1c-7.4,0-13.2-3.5-13.2-7.9a1.1,1.1,0,0,1,2.2,0c0,3.1,5,5.7,11,5.7S139,57.3,139,54.2a1.1,1.1,0,1,1,2.2,0C141.2,58.6,135.4,62.1,127.9,62.1Z"/><path class="cls-6" d="M232.8,132.9c0,18.1-46.6,32.7-104.1,32.7S24.5,151,24.5,132.9"/><rect class="cls-7" x="6.2" y="116.6" width="245" height="16.33" rx="4.4" ry="4.4"/><polygon class="cls-2" points="30.5 116.6 226.9 116.6 206.5 74.7 50.9 74.7 30.5 116.6"/><circle class="cls-7" cx="157.3" cy="96.4" r="10.2"/><circle class="cls-7" cx="100.1" cy="96.4" r="10.2"/><circle class="cls-7" cx="210.3" cy="96.4" r="10.2"/><circle class="cls-7" cx="47" cy="96.4" r="10.2"/></svg>