<svg xmlns="http://www.w3.org/2000/svg" viewBox="0 0 256 256"><defs><style>.a{fill:#ef5361;}.b{fill:#cc4753;}.c{fill:#662530;}.d{fill:#00addd;}.e{fill:#fff;}.f{fill:#142024;}</style></defs><title>space-guy</title><path class="a" d="M94.33,156.75a1.5,1.5,0,1,0,1.5,1.5A1.5,1.5,0,0,0,94.33,156.75Zm8,2a3.5,3.5,0,1,0,3.5,3.5A3.5,3.5,0,0,0,102.33,158.75ZM127.88,98c-28.72,0-52,13.43-52,30s23.28,30,52,30,52-13.43,52-30S156.6,98,127.88,98Zm0,0c-28.72,0-52,13.43-52,30s23.28,30,52,30,52-13.43,52-30S156.6,98,127.88,98Zm-25.55,60.75a3.5,3.5,0,1,0,3.5,3.5A3.5,3.5,0,0,0,102.33,158.75Zm-8-2a1.5,1.5,0,1,0,1.5,1.5A1.5,1.5,0,0,0,94.33,156.75ZM128,20A108,108,0,1,0,236,128,108,108,0,0,0,128,20ZM71,147.19c-7-5.51-11.13-12.1-11.13-19.19S64,114.32,71,108.81a60,60,0,0,1,113.74,0c7,5.51,11.13,12.1,11.13,19.19s-4.09,13.68-11.13,19.19a60.08,60.08,0,0,1-28.29,33.57c.67,2.42,1.86,8.35,2.89,14.23A73.49,73.49,0,0,1,130,202q-1,0-2.1,0c-.63,0-1.25,0-1.87,0s-1.25,0-1.87-.07-1.17-.06-1.75-.11a73.69,73.69,0,0,1-24.48-6.17l-.11-.05c.85-5.35,1.76-11.72,2.14-14.46A60.15,60.15,0,0,1,71,147.19ZM188.94,55.63a8,8,0,1,1,0,11.31A8,8,0,0,1,188.94,55.63ZM128.13,25.75a8,8,0,1,1-8,8A8,8,0,0,1,128.13,25.75ZM56,55.63a8,8,0,1,1,0,11.31A8,8,0,0,1,56,55.63ZM34.13,135.75a8,8,0,1,1,8-8A8,8,0,0,1,34.13,135.75Zm33.19,64.12a8,8,0,1,1,0-11.31A8,8,0,0,1,67.32,199.87Zm60.81,29.88a8,8,0,1,1,8-8A8,8,0,0,1,128.13,229.75Zm72.12-29.88a8,8,0,1,1,0-11.31A8,8,0,0,1,200.25,199.87Zm21.88-64.12a8,8,0,1,1,8-8A8,8,0,0,1,222.13,135.75ZM179.88,128c0-16.57-23.28-30-52-30s-52,13.43-52,30,23.28,30,52,30S179.88,144.57,179.88,128Zm-74,34.25a3.5,3.5,0,1,0-3.5,3.5A3.5,3.5,0,0,0,105.83,162.25Zm-11.5-5.5a1.5,1.5,0,1,0,1.5,1.5A1.5,1.5,0,0,0,94.33,156.75Zm0,0a1.5,1.5,0,1,0,1.5,1.5A1.5,1.5,0,0,0,94.33,156.75Zm8,2a3.5,3.5,0,1,0,3.5,3.5A3.5,3.5,0,0,0,102.33,158.75ZM127.88,98c-28.72,0-52,13.43-52,30s23.28,30,52,30,52-13.43,52-30S156.6,98,127.88,98Zm0,0c-28.72,0-52,13.43-52,30s23.28,30,52,30,52-13.43,52-30S156.6,98,127.88,98Zm-25.55,60.75a3.5,3.5,0,1,0,3.5,3.5A3.5,3.5,0,0,0,102.33,158.75Zm-8-2a1.5,1.5,0,1,0,1.5,1.5A1.5,1.5,0,0,0,94.33,156.75Z"/><circle class="b" cx="94.33" cy="158.25" r="1.5"/><circle class="b" cx="102.33" cy="162.25" r="3.5"/><ellipse class="b" cx="127.88" cy="128" rx="52" ry="30"/><path class="b" d="M128,46a82,82,0,1,0,82,82A82,82,0,0,0,128,46Zm-.13,156c-.63,0-1.25,0-1.87,0s-1.25,0-1.87-.07-1.17-.06-1.75-.11a73.69,73.69,0,0,1-24.48-6.17l-.11-.05c.85-5.35,1.76-11.72,2.14-14.46A60.15,60.15,0,0,1,71,147.19c-7-5.51-11.13-12.1-11.13-19.19S64,114.32,71,108.81a60,60,0,0,1,113.74,0c7,5.51,11.13,12.1,11.13,19.19s-4.09,13.68-11.13,19.19a60.08,60.08,0,0,1-28.29,33.57c.67,2.42,1.86,8.35,2.89,14.23A73.49,73.49,0,0,1,130,202Q128.93,202,127.88,202Z"/><circle class="c" cx="94.33" cy="158.25" r="1.5"/><circle class="c" cx="102.33" cy="162.25" r="3.5"/><ellipse class="c" cx="127.88" cy="128" rx="52" ry="30"/><path class="c" d="M202,128a74,74,0,0,1-72,74,73.49,73.49,0,0,0,29.37-7c-1-5.88-2.22-11.81-2.89-14.23a60.08,60.08,0,0,0,28.29-33.57c7-5.51,11.13-12.1,11.13-19.19s-4.09-13.68-11.13-19.19a60,60,0,0,0-113.74,0c-7,5.51-11.13,12.1-11.13,19.19S64,141.68,71,147.19a60.15,60.15,0,0,0,28.93,33.92c-.38,2.74-1.29,9.11-2.14,14.46A74,74,0,1,1,202,128Z"/><circle class="d" cx="94.33" cy="158.25" r="1.5"/><circle class="d" cx="102.33" cy="162.25" r="3.5"/><ellipse class="d" cx="127.88" cy="128" rx="52" ry="30"/><path class="e" d="M127.88,100.5c-27.06,0-49,12.31-49,27.5s21.94,27.5,49,27.5,49-12.31,49-27.5S154.94,100.5,127.88,100.5Zm0,50c-22.09,0-40-10.07-40-22.5,0-9.35,10.14-17.37,24.57-20.76a67.44,67.44,0,0,1,15.43-1.74,61.81,61.81,0,0,1,24.82,4.86c9.25,4.11,15.18,10.49,15.18,17.64C167.88,140.43,150,150.5,127.88,150.5Z"/><circle class="f" cx="147.88" cy="128" r="5"/><circle class="f" cx="107.88" cy="128" r="5"/><path class="f" d="M127.88,143c-5.61,0-10-2.64-10-6a1,1,0,0,1,2,0c0,1.89,3.29,4,8,4s8-2.11,8-4a1,1,0,0,1,2,0C137.88,140.36,133.49,143,127.88,143Z"/><path class="f" d="M136.28,133.11,120.71,132a1,1,0,0,1,.14-2l12.43.89-4.43-11.53a1,1,0,0,1,1.86-.72Z"/><path class="f" d="M138.13,109.75c3,2,8,12,7,11s-3-2-14-3c-7.8-.71-15.1-7-18.68-10.51a67.44,67.44,0,0,1,15.43-1.74,61.81,61.81,0,0,1,24.82,4.86c2.54,2.32,4,4.39,3.43,4.39C155.13,114.75,135.13,107.75,138.13,109.75Z"/><path class="e" d="M184.75,108.81a60,60,0,0,0-113.74,0c-7,5.51-11.13,12.1-11.13,19.19S64,141.68,71,147.19a60.15,60.15,0,0,0,28.93,33.92c-.38,2.74-1.29,9.11-2.14,14.46l.11.05a73.69,73.69,0,0,0,24.48,6.17c.58.05,1.17.08,1.75.11s1.24.06,1.87.07,1.24,0,1.87,0,1.4,0,2.1,0a73.49,73.49,0,0,0,29.37-7c-1-5.88-2.22-11.81-2.89-14.23a60.08,60.08,0,0,0,28.29-33.57c7-5.51,11.13-12.1,11.13-19.19S191.79,114.32,184.75,108.81ZM94.33,159.75a1.5,1.5,0,1,1,1.5-1.5A1.5,1.5,0,0,1,94.33,159.75Zm8,6a3.5,3.5,0,1,1,3.5-3.5A3.5,3.5,0,0,1,102.33,165.75ZM127.88,158c-28.72,0-52-13.43-52-30s23.28-30,52-30,52,13.43,52,30S156.6,158,127.88,158Z"/><path class="e" d="M122.39,201.79a73.29,73.29,0,0,1-24.6-6.17s0,0,0-.05l.11.05A73.69,73.69,0,0,0,122.39,201.79Z"/></svg>